<svg xmlns="http://www.w3.org/2000/svg" width="512" height="512" viewBox="0 0 512 512">
  <rect width="512" height="512" rx="112" fill="#0f766e"/>
  <circle cx="382" cy="128" r="62" fill="#facc15" opacity=".95"/>
  <path fill="#ecfeff" d="M126 156c0-31 25-56 56-56h148c31 0 56 25 56 56v200c0 31-25 56-56 56H182c-31 0-56-25-56-56V156Z"/>
  <path fill="#0f766e" d="M176 189c0-12 10-22 22-22h116c12 0 22 10 22 22s-10 22-22 22H198c-12 0-22-10-22-22Zm0 72c0-12 10-22 22-22h62c12 0 22 10 22 22s-10 22-22 22h-62c-12 0-22-10-22-22Zm0 72c0-12 10-22 22-22h116c12 0 22 10 22 22s-10 22-22 22H198c-12 0-22-10-22-22Z"/>
  <path fill="#14b8a6" d="M301 254c0-19 15-34 34-34h53v113h-53c-19 0-34-15-34-34v-45Z"/>
  <circle cx="341" cy="276" r="14" fill="#ecfeff"/>
</svg>
